<svg width="14" height="14" viewBox="0 0 14 14" fill="none" xmlns="http://www.w3.org/2000/svg">
<path d="M7 14C3.14125 14 0 10.8587 0 7C0 3.14125 3.14125 0 7 0C10.8587 0 14 3.14125 14 7C14 10.8587 10.8587 14 7 14ZM7 1.0675C3.7275 1.0675 1.0675 3.7275 1.0675 7C1.0675 10.2725 3.7275 12.9325 7 12.9325C10.2725 12.9325 12.9325 10.2725 12.9325 7C12.9325 3.7275 10.2725 1.0675 7 1.0675Z" fill="#717274"/>
<path d="M5.23248 9.42373C5.09248 9.42373 4.96123 9.37123 4.85623 9.26623C4.64623 9.05623 4.64623 8.71498 4.85623 8.51373L8.63623 4.73373C8.84623 4.52373 9.18748 4.52373 9.38873 4.73373C9.58998 4.94373 9.59873 5.28498 9.38873 5.48623L5.60873 9.26623C5.50373 9.37123 5.36373 9.42373 5.23248 9.42373Z" fill="#717274"/>
<path d="M9.02127 9.42377C8.88127 9.42377 8.75002 9.37127 8.64502 9.26627L4.86502 5.48627C4.65502 5.27627 4.65502 4.93502 4.86502 4.73377C5.07502 4.53252 5.41627 4.52377 5.61752 4.73377L9.39752 8.51376C9.60752 8.72376 9.60752 9.06502 9.39752 9.26627C9.29252 9.37127 9.15252 9.42377 9.02127 9.42377Z" fill="#717274"/>
</svg>
