<svg width="20" height="20" viewBox="0 0 20 20" xmlns="http://www.w3.org/2000/svg">
<g clip-path="url(#clip0_1_1458)">
<path d="M15.1 17.1H4.97498C4.77498 17.1 4.59998 16.9375 4.59998 16.725V2.875C4.59998 2.675 4.76248 2.5 4.97498 2.5H15.1C15.3 2.5 15.475 2.6625 15.475 2.875V16.7375C15.475 16.9375 15.3125 17.1125 15.1 17.1125V17.1ZM5.34998 16.3625H14.7375V3.25H5.34998V16.3625Z" />
<path d="M2.57501 16.375C2.37501 16.375 2.20001 16.2125 2.20001 16V3.59998C2.20001 3.39998 2.36251 3.22498 2.57501 3.22498C2.78751 3.22498 2.95001 3.38748 2.95001 3.59998V16C2.95001 16.2 2.78751 16.375 2.57501 16.375Z" />
<path d="M0.375 14.9C0.175 14.9 0 14.7375 0 14.525V5.07495C0 4.87495 0.1625 4.69995 0.375 4.69995C0.5875 4.69995 0.75 4.86245 0.75 5.07495V14.525C0.75 14.725 0.5875 14.9 0.375 14.9Z" />
<path d="M17.425 16.375C17.225 16.375 17.05 16.2125 17.05 16V3.59998C17.05 3.39998 17.2125 3.22498 17.425 3.22498C17.6375 3.22498 17.8 3.38748 17.8 3.59998V16C17.8 16.2 17.6375 16.375 17.425 16.375Z" />
<path d="M19.625 14.9C19.425 14.9 19.25 14.7375 19.25 14.525V5.07495C19.25 4.87495 19.4125 4.69995 19.625 4.69995C19.8375 4.69995 20 4.86245 20 5.07495V14.525C20 14.725 19.8375 14.9 19.625 14.9Z" />
</g>
<defs>
<clipPath id="clip0_1_1458">
<rect width="20" height="20" fill="white"/>
</clipPath>
</defs>
</svg>
