<svg width="14" height="14" viewBox="0 0 14 14" fill="none" xmlns="http://www.w3.org/2000/svg">
<path d="M12.2523 2.33333H10.4439C10.3086 1.67499 9.95034 1.08345 9.42968 0.658419C8.90901 0.233386 8.25773 0.000848473 7.58561 0L6.41895 0C5.74683 0.000848473 5.09555 0.233386 4.57488 0.658419C4.05422 1.08345 3.696 1.67499 3.56061 2.33333H1.75228C1.59757 2.33333 1.4492 2.39479 1.3398 2.50419C1.2304 2.61358 1.16895 2.76196 1.16895 2.91667C1.16895 3.07138 1.2304 3.21975 1.3398 3.32915C1.4492 3.43854 1.59757 3.5 1.75228 3.5H2.33561V11.0833C2.33654 11.8566 2.64413 12.5979 3.19091 13.1447C3.73769 13.6915 4.47902 13.9991 5.25228 14H8.75228C9.52554 13.9991 10.2669 13.6915 10.8137 13.1447C11.3604 12.5979 11.668 11.8566 11.6689 11.0833V3.5H12.2523C12.407 3.5 12.5554 3.43854 12.6648 3.32915C12.7742 3.21975 12.8356 3.07138 12.8356 2.91667C12.8356 2.76196 12.7742 2.61358 12.6648 2.50419C12.5554 2.39479 12.407 2.33333 12.2523 2.33333ZM6.41895 1.16667H7.58561C7.94744 1.16711 8.30027 1.27947 8.59572 1.48834C8.89117 1.69721 9.11477 1.99237 9.23586 2.33333H4.7687C4.88979 1.99237 5.11339 1.69721 5.40884 1.48834C5.70429 1.27947 6.05712 1.16711 6.41895 1.16667ZM10.5023 11.0833C10.5023 11.5475 10.3179 11.9926 9.98972 12.3208C9.66153 12.649 9.21641 12.8333 8.75228 12.8333H5.25228C4.78815 12.8333 4.34303 12.649 4.01484 12.3208C3.68665 11.9926 3.50228 11.5475 3.50228 11.0833V3.5H10.5023V11.0833Z" fill="#717274"/>
<path d="M5.83333 10.5C5.98804 10.5 6.13642 10.4385 6.24581 10.3291C6.35521 10.2197 6.41667 10.0714 6.41667 9.91665V6.41665C6.41667 6.26194 6.35521 6.11356 6.24581 6.00417C6.13642 5.89477 5.98804 5.83331 5.83333 5.83331C5.67862 5.83331 5.53025 5.89477 5.42085 6.00417C5.31146 6.11356 5.25 6.26194 5.25 6.41665V9.91665C5.25 10.0714 5.31146 10.2197 5.42085 10.3291C5.53025 10.4385 5.67862 10.5 5.83333 10.5Z" fill="#717274"/>
<path d="M8.16439 10.5C8.3191 10.5 8.46747 10.4386 8.57687 10.3292C8.68626 10.2198 8.74772 10.0714 8.74772 9.91671V6.41671C8.74772 6.262 8.68626 6.11362 8.57687 6.00423C8.46747 5.89483 8.3191 5.83337 8.16439 5.83337C8.00968 5.83337 7.86131 5.89483 7.75191 6.00423C7.64251 6.11362 7.58105 6.262 7.58105 6.41671V9.91671C7.58105 10.0714 7.64251 10.2198 7.75191 10.3292C7.86131 10.4386 8.00968 10.5 8.16439 10.5Z" fill="#717274"/>
</svg>
