<svg width="14" height="14" viewBox="0 0 14 14" fill="none" xmlns="http://www.w3.org/2000/svg">
<path d="M13.5333 1.74996C13.5333 2.07079 13.2883 2.33329 12.9889 2.33329H1.01112C0.711675 2.33329 0.466675 2.07079 0.466675 1.74996C0.466675 1.42913 0.711675 1.16663 1.01112 1.16663H12.9889C13.2883 1.16663 13.5333 1.42913 13.5333 1.74996ZM4.27779 11.6666H1.01112C0.711675 11.6666 0.466675 11.9291 0.466675 12.25C0.466675 12.5708 0.711675 12.8333 1.01112 12.8333H4.27779C4.57723 12.8333 4.82223 12.5708 4.82223 12.25C4.82223 11.9291 4.57723 11.6666 4.27779 11.6666ZM8.63334 6.41663H1.01112C0.711675 6.41663 0.466675 6.67913 0.466675 6.99996C0.466675 7.32079 0.711675 7.58329 1.01112 7.58329H8.63334C8.93279 7.58329 9.17779 7.32079 9.17779 6.99996C9.17779 6.67913 8.93279 6.41663 8.63334 6.41663Z" fill="#E51058"/>
</svg>
