<svg width="14" height="14" viewBox="0 0 14 14" fill="none" xmlns="http://www.w3.org/2000/svg">
<g clipPath="url(#clip0_205_162)">
<path d="M14 9.04165V9.33331C14 9.65415 13.7375 9.91665 13.4167 9.91665C13.0958 9.91665 12.8333 9.65415 12.8333 9.33331V9.04165C12.8333 8.55748 12.4425 8.16665 11.9583 8.16665H11.0833V12.8333C11.0833 13.1541 10.8208 13.4166 10.5 13.4166C10.1792 13.4166 9.91667 13.1541 9.91667 12.8333V8.16665H9.04167C8.5575 8.16665 8.16667 8.55748 8.16667 9.04165V9.33331C8.16667 9.65415 7.90417 9.91665 7.58333 9.91665C7.2625 9.91665 7 9.65415 7 9.33331V9.04165C7 7.91581 7.91583 6.99998 9.04167 6.99998H11.9583C13.0842 6.99998 14 7.91581 14 9.04165ZM7.58333 1.74998C8.54583 1.74998 9.33333 2.53748 9.33333 3.49998V4.08331C9.33333 4.40415 9.59583 4.66665 9.91667 4.66665C10.2375 4.66665 10.5 4.40415 10.5 4.08331V3.49998C10.5 1.88998 9.19333 0.583313 7.58333 0.583313H2.91667C1.30667 0.583313 0 1.88998 0 3.49998V4.08331C0 4.40415 0.2625 4.66665 0.583333 4.66665C0.904167 4.66665 1.16667 4.40415 1.16667 4.08331V3.49998C1.16667 2.53748 1.95417 1.74998 2.91667 1.74998H4.66667V12.8333C4.66667 13.1541 4.92917 13.4166 5.25 13.4166C5.57083 13.4166 5.83333 13.1541 5.83333 12.8333V1.74998H7.58333Z" fill="#E51058"/>
</g>
<defs>
<clipPath id="clip0_205_162">
<rect width="14" height="14" fill="white"/>
</clipPath>
</defs>
</svg>
