<svg width="18" height="18" viewBox="0 0 18 18" fill="none" xmlns="http://www.w3.org/2000/svg">
<path d="M17.8708 17.1975L13.3775 12.708C14.6107 11.3221 15.292 9.53168 15.2921 7.67659C15.2991 5.92671 14.7056 4.22737 13.6108 2.86228C12.516 1.49718 10.986 0.54893 9.27635 0.175827C7.56668 -0.197276 5.78077 0.0273454 4.21675 0.812194C2.65273 1.59704 1.40524 2.89462 0.68254 4.48832C-0.040157 6.08201 -0.194331 7.87538 0.245757 9.56904C0.685845 11.2627 1.69356 12.7542 3.10068 13.7944C4.5078 14.8347 6.22917 15.3608 7.97743 15.285C9.72569 15.2092 11.395 14.536 12.7068 13.3778L17.1973 17.8711C17.2866 17.9574 17.4062 18.0051 17.5304 18.004C17.6546 18.0029 17.7734 17.9531 17.8613 17.8653C17.9491 17.7775 17.9989 17.6587 18 17.5345C18.0011 17.4103 17.9533 17.2906 17.867 17.2013M1.00793 7.67659C1.00768 6.58073 1.27751 5.5017 1.79354 4.53495C2.30958 3.56819 3.05591 2.74351 3.96653 2.13385C4.87715 1.5242 5.92399 1.14836 7.01444 1.03958C8.10489 0.930806 9.20533 1.09245 10.2184 1.5102C11.2316 1.92796 12.1261 2.58896 12.8229 3.43472C13.5198 4.28049 13.9974 5.28496 14.2137 6.35927C14.4299 7.43359 14.378 8.54464 14.0627 9.59414C13.7473 10.6436 13.1781 11.5992 12.4055 12.3764C12.3999 12.3812 12.3913 12.383 12.3856 12.3897C12.38 12.3963 12.3781 12.4039 12.3724 12.4096C11.4384 13.3385 10.2501 13.9698 8.95761 14.2238C7.66508 14.4778 6.32627 14.343 5.11026 13.8366C3.89425 13.3302 2.85558 12.4748 2.12544 11.3784C1.3953 10.282 1.00642 8.99384 1.00793 7.67659Z" fill="#E51058"/>
</svg>