<svg width="20" height="20" viewBox="0 0 20 20" fill="none" xmlns="http://www.w3.org/2000/svg">
<g clip-path="url(#clip0_1_1464)">
<path d="M19.575 1.07503L0.275015 8.58753C0.112515 8.68753 0.0750146 8.88753 0.162515 9.05003C0.187515 9.10003 0.225015 9.13753 0.275015 9.16253L4.27501 11.45L5.70002 18.1875C5.70002 18.6625 6.17501 18.375 6.17501 18.375L9.88752 14.575C9.98751 14.4375 9.98751 14.2375 9.88752 14.1C9.75001 14.0125 9.56252 14.0125 9.41252 14.1L6.26252 17.2375L6.73751 12.8625L13.975 16.8625C14.2625 17.05 14.3625 16.775 14.3625 16.775L19.725 1.63753C20.1375 0.800033 19.575 1.06253 19.575 1.06253V1.07503ZM1.12501 8.87503L16.9125 2.77503L4.55001 10.75L1.12501 8.87503ZM6.46251 12.1L6.36251 12.2V12.2875L5.88752 16.0875L4.98751 11.3375L15.575 4.41253L6.45001 12.1H6.46251ZM14.0625 16.1L7.22502 12.3L18.975 2.40003L14.0625 16.1Z" fill="#717274"/>
<path d="M5.9 18.575C5.9 18.575 5.7875 18.575 5.7375 18.5375C5.625 18.475 5.575 18.3625 5.575 18.1875L4.175 11.525L0.212499 9.25001C0.149999 9.21251 0.0999985 9.16251 0.0624985 9.10001C-0.0625015 8.88751 -1.49384e-06 8.61251 0.212499 8.47501L19.525 0.962508C19.525 0.962508 19.8 0.850008 19.925 0.975008C20.05 1.10001 20.0125 1.31251 19.8375 1.68751L14.475 16.8C14.475 16.8 14.4125 16.9625 14.2625 17.0125C14.15 17.05 14.0375 17.025 13.9125 16.9375L9.8875 14.7125L6.2375 18.45C6.2375 18.45 6.0625 18.55 5.9 18.55V18.575ZM19.75 1.15001C19.75 1.15001 19.6625 1.16251 19.625 1.18751L0.312499 8.68751C0.224999 8.73751 0.199998 8.87501 0.262498 8.97501C0.274998 9.00001 0.299999 9.02501 0.337499 9.05001L4.375 11.3625L5.8 18.1625C5.8 18.2625 5.8125 18.325 5.85 18.3375C5.9 18.3625 6.025 18.325 6.1 18.2875L9.675 14.625L9.275 14.4L6.1125 17.5625L6.65 12.675L9.2375 14.1125L9.325 14.025C9.525 13.8875 9.7625 13.8875 9.9375 14.0125L9.975 14.0375C10.0875 14.1875 10.1 14.3875 10.0375 14.55L14.0375 16.7625C14.0375 16.7625 14.15 16.825 14.1875 16.8125C14.2375 16.8 14.2625 16.7375 14.2625 16.7375L19.625 1.60001C19.8125 1.22501 19.7625 1.15001 19.7625 1.15001H19.75ZM6.8375 13.05L6.4125 16.9125L9.0625 14.275L6.8375 13.05ZM9.45 14.225L9.825 14.4375C9.85 14.3625 9.8375 14.275 9.8 14.1875C9.7 14.1375 9.575 14.1375 9.475 14.1875L9.45 14.2125V14.225ZM5.9125 16.85L4.85 11.2875L4.9125 11.25L15.5125 4.31251L15.65 4.50001L6.475 12.2375V12.275L5.9 16.8375L5.9125 16.85ZM5.1125 11.4L5.8625 15.35L6.25 12.2875V12.1625L6.3875 12.025L14.0375 5.58751L5.1125 11.4125V11.4ZM14.125 16.275L14 16.2125L7.0125 12.325L7.1375 12.2125L19.225 2.02501L14.125 16.2625V16.275ZM7.425 12.275L14 15.925L18.7125 2.77501L7.425 12.275ZM4.5625 10.8875L0.849999 8.85001L1.0875 8.76251L17.95 2.26251L4.5625 10.875V10.8875ZM1.4125 8.90001L4.55 10.6125L15.8875 3.30001L1.4 8.88751L1.4125 8.90001Z" fill="#717274"/>
</g>
<defs>
<clipPath id="clip0_1_1464">
<rect width="20" height="20" fill="white"/>
</clipPath>
</defs>
</svg>
