<svg width="8" height="8" viewBox="0 0 8 8" fill="none" xmlns="http://www.w3.org/2000/svg">
<path d="M7.57805 1.97868C7.52847 1.92869 7.46948 1.88902 7.40449 1.86194C7.3395 1.83486 7.26979 1.82092 7.19938 1.82092C7.12897 1.82092 7.05927 1.83486 6.99427 1.86194C6.92928 1.88902 6.8703 1.92869 6.82071 1.97868L4.37805 4.42135C4.32847 4.47134 4.26948 4.51101 4.20449 4.53809C4.1395 4.56517 4.06979 4.57911 3.99938 4.57911C3.92897 4.57911 3.85927 4.56517 3.79427 4.53809C3.72928 4.51101 3.67029 4.47134 3.62071 4.42135L1.17805 1.97868C1.12847 1.92869 1.06948 1.88902 1.00449 1.86194C0.939497 1.83486 0.869787 1.82092 0.799381 1.82092C0.728975 1.82092 0.659265 1.83486 0.594273 1.86194C0.529282 1.88902 0.470295 1.92869 0.420714 1.97868C0.32138 2.07861 0.265625 2.21378 0.265625 2.35468C0.265625 2.49558 0.32138 2.63076 0.420714 2.73068L2.86871 5.17868C3.16872 5.47831 3.57538 5.64661 3.99938 5.64661C4.42338 5.64661 4.83005 5.47831 5.13005 5.17868L7.57805 2.73068C7.67738 2.63076 7.73314 2.49558 7.73314 2.35468C7.73314 2.21378 7.67738 2.07861 7.57805 1.97868Z" fill="#E51058"/>
</svg>
