<svg width="8" height="8" viewBox="0 0 8 8" fill="none" xmlns="http://www.w3.org/2000/svg">
<path d="M0.421952 6.02132C0.471533 6.07131 0.530519 6.11098 0.595511 6.13806C0.660502 6.16514 0.730212 6.17908 0.800619 6.17908C0.871025 6.17908 0.940735 6.16514 1.00573 6.13806C1.07072 6.11098 1.1297 6.07131 1.17929 6.02132L3.62195 3.57865C3.67153 3.52866 3.73052 3.48899 3.79551 3.46191C3.8605 3.43483 3.93021 3.42089 4.00062 3.42089C4.07103 3.42089 4.14073 3.43483 4.20573 3.46191C4.27072 3.48899 4.32971 3.52866 4.37929 3.57865L6.82195 6.02132C6.87153 6.07131 6.93052 6.11098 6.99551 6.13806C7.0605 6.16514 7.13021 6.17908 7.20062 6.17908C7.27103 6.17908 7.34073 6.16514 7.40573 6.13806C7.47072 6.11098 7.52971 6.07131 7.57929 6.02132C7.67862 5.92139 7.73437 5.78622 7.73438 5.64532C7.73437 5.50442 7.67862 5.36924 7.57929 5.26932L5.13129 2.82132C4.83128 2.52169 4.42462 2.35339 4.00062 2.35339C3.57662 2.35339 3.16995 2.52169 2.86995 2.82132L0.421952 5.26932C0.322618 5.36924 0.266862 5.50442 0.266862 5.64532C0.266862 5.78622 0.322618 5.92139 0.421952 6.02132Z" fill="#717274"/>
</svg>
