<svg width="20" height="20" viewBox="0 0 20 20" fill="none" xmlns="http://www.w3.org/2000/svg">
<g clip-path="url(#clip0_1_1459)">
<path d="M10 13.3C9.925 13.3 9.85 13.275 9.7875 13.2375L0.2125 7.72501C0.0875 7.63751 0 7.50001 0 7.35001C0 7.20001 0.0875 7.05001 0.2125 6.97501L9.7875 1.53751C9.925 1.46251 10.0875 1.46251 10.2125 1.53751L19.7875 6.96251C19.925 7.03751 20 7.18751 20 7.33751C20 7.48751 19.9125 7.63751 19.7875 7.71251L10.2125 13.225C10.15 13.2625 10.075 13.2875 10 13.2875V13.3ZM1.3 7.35001L10 12.3625L18.7 7.35001L10 2.41251L1.3 7.35001Z" fill="#717274"/>
<path d="M9.99997 15.7125C9.92497 15.7125 9.84997 15.7 9.78747 15.6625L0.212474 10.225C-2.5671e-05 10.1125 -0.0625257 9.85002 0.0499743 9.63752C0.162474 9.42502 0.424974 9.36252 0.637474 9.47502L9.99997 14.7875L19.35 9.47502C19.5625 9.36252 19.825 9.42502 19.9375 9.63752C20.05 9.85002 19.9875 10.1125 19.775 10.225L10.2 15.6625C10.1375 15.7 10.0625 15.7125 9.98747 15.7125H9.99997Z" fill="#717274"/>
<path d="M9.99997 18.125C9.92497 18.125 9.84997 18.1125 9.78747 18.075L0.212474 12.6375C-2.5671e-05 12.525 -0.0625257 12.2625 0.0499743 12.05C0.162474 11.8375 0.424974 11.775 0.637474 11.8875L9.99997 17.2L19.35 11.8875C19.5625 11.775 19.825 11.8375 19.9375 12.05C20.05 12.2625 19.9875 12.525 19.775 12.6375L10.2 18.0625C10.1375 18.1 10.0625 18.1125 9.98747 18.1125L9.99997 18.125Z" fill="#717274"/>
</g>
<defs>
<clipPath id="clip0_1_1459">
<rect width="20" height="20" fill="white"/>
</clipPath>
</defs>
</svg>
